M48
; DRILL file {KiCad (7.0.0)} date Tue May  9 14:51:51 2023
; FORMAT={-:-/ absolute / metric / decimal}
; #@! TF.CreationDate,2023-05-09T14:51:51+07:00
; #@! TF.GenerationSoftware,Kicad,Pcbnew,(7.0.0)
; #@! TF.FileFunction,MixedPlating,1,2
FMAT,2
METRIC
; #@! TA.AperFunction,Plated,PTH,ComponentDrill
T1C0.500
; #@! TA.AperFunction,Plated,PTH,ComponentDrill
T2C0.800
; #@! TA.AperFunction,Plated,PTH,ComponentDrill
T3C0.950
; #@! TA.AperFunction,Plated,PTH,ComponentDrill
T4C1.000
; #@! TA.AperFunction,Plated,PTH,ComponentDrill
T5C1.100
; #@! TA.AperFunction,Plated,PTH,ComponentDrill
T6C1.300
; #@! TA.AperFunction,Plated,PTH,ComponentDrill
T7C3.000
%
G90
G05
T1
X16.419Y-124.46
X16.927Y-69.342
X17.078Y-122.869
X17.078Y-126.051
X17.586Y-67.751
X17.586Y-70.933
X18.669Y-122.21
X18.669Y-126.71
X19.177Y-67.092
X19.177Y-71.592
X20.26Y-122.869
X20.26Y-126.051
X20.768Y-67.751
X20.768Y-70.933
X20.919Y-124.46
X21.427Y-69.342
X51.344Y-68.961
X51.471Y-124.46
X52.003Y-67.37
X52.003Y-70.552
X52.13Y-122.869
X52.13Y-126.051
X53.594Y-66.711
X53.594Y-71.211
X53.721Y-122.21
X53.721Y-126.71
X55.185Y-67.37
X55.185Y-70.552
X55.312Y-122.869
X55.312Y-126.051
X55.844Y-68.961
X55.971Y-124.46
T2
X30.978Y-68.209
X30.978Y-78.369
X33.518Y-68.209
X33.518Y-78.369
X36.058Y-68.209
X36.058Y-78.369
X38.598Y-68.209
X38.598Y-78.369
X41.138Y-68.209
X41.138Y-78.369
X43.678Y-68.209
T3
X21.065Y-83.225
X21.065Y-85.725
X21.065Y-88.225
T4
X54.737Y-102.743
X54.737Y-105.283
X54.737Y-107.823
X54.737Y-110.363
X54.737Y-112.903
X54.737Y-115.443
X98.425Y-64.897
X100.925Y-64.897
T5
X19.737Y-93.254
X19.737Y-97.754
X19.737Y-101.382
X19.737Y-105.882
X19.737Y-109.383
X19.737Y-113.883
X26.237Y-93.254
X26.237Y-97.754
X26.237Y-101.382
X26.237Y-105.882
X26.237Y-109.383
X26.237Y-113.883
T6
X25.705Y-118.369
X25.705Y-123.449
T7
X18.669Y-124.46
X19.177Y-69.342
X53.594Y-68.961
X53.721Y-124.46
T0
M30
